# xmcd CD database file
# Copyright (C) 1995-1998 Ti Kan
#
# Track frame offsets:
#	150
#	11390
#	23405
#	35960
#	52357
#	66840
#	80687
#	91602
#	101267
#	110777
#	123407
#	134587
#	148137
#	157295
#	171587
#	187687
#	211997
#	234767
#	258712
#	275727
#	302952
#	323520
#	344280
#
# Disc length: 4790 seconds
#
# Revision: 2
# Processed by: cddbd v1.4PL0 Copyright (c) Steve Scherf et al.
# Submitted via: CDex 1.30Release
#
DISCID=5512b417
DTITLE=Hank Snow - The Singing Ranger Vol. 3 [CD08 of 12)
DYEAR=1992
DGENRE=Country
TTITLE0=White Christmas 1962
TTITLE1=Little Stranger (In a Manger) 1966
TTITLE2=Christmas Roses 1966
TTITLE3=Silent Night 1966
TTITLE4=C-H-R-I-S-T-M-A-S 1966
TTITLE5=White Christmas 1966
TTITLE6=Blue Christmas 1966
TTITLE7=The Reindeer Boogie 1966
TTITLE8=Frosty The Snowman 1966
TTITLE9=Christmas Wants 1966
TTITLE10=Rudolph, The Red Nosed Reindeer 1966
TTITLE11=God Is My Santa Claus 1966
TTITLE12=The Christmas Cannonball 1966
TTITLE13=A Letter to Santa Claus 1974
TTITLE14=Nestor, The Long Eared Christmas Donkey 1975
TTITLE15=The Face On The Barroom Floor 1968
TTITLE16=Dangerous Dan McGrew 1968
TTITLE17=The Cremation of Sam McGee 1968
TTITLE18=The Spell of The Yukon 1968
TTITLE19=The Ballad of Blasphemous Bill 1968
TTITLE20=The Ballad of One-Eyed Mike 1968
TTITLE21=The Ballad of Hard Luck Henry 1968
TTITLE22=My Friends 1968
EXTD=YEAR: 1992 ID3G:   2
EXTT0=
EXTT1=
EXTT2=
EXTT3=
EXTT4=
EXTT5=
EXTT6=
EXTT7=
EXTT8=
EXTT9=
EXTT10=
EXTT11=
EXTT12=
EXTT13=
EXTT14=
EXTT15=
EXTT16=
EXTT17=
EXTT18=
EXTT19=
EXTT20=
EXTT21=
EXTT22=
PLAYORDER=
